<svg xmlns="http://www.w3.org/2000/svg" fill="none" viewBox="0 0 639.77 569">
<path fill-rule="evenodd" clip-rule="evenodd" d="M334.093 0.0753745C379.082 1.88494 405.48 52.9321 447.46 69.2142C499.95 89.5723 569.935 66.3842 609.174 106.765C647.339 146.042 639.485 210.871 638.32 265.631C637.172 319.57 626.34 372.246 602.496 420.639C577.593 471.183 548.246 524.087 498.216 549.986C448.703 575.617 388.524 571.646 334.093 559.585C285.444 548.806 253.022 505.052 207.188 485.5C153.083 462.421 80.5349 478.571 41.3351 434.704C2.5145 391.262 -11.8191 319.364 10.7106 265.631C34.0227 210.031 112.967 205.22 155.477 162.476C183.879 133.917 185.535 86.9734 215.336 59.8778C248.7 29.5427 289.042 -1.73664 334.093 0.0753745Z" fill="#FEF1E0"/>
</svg>