<?xml version="1.0" encoding="UTF-8"?>
<svg id="Capa_2" data-name="Capa 2" xmlns="http://www.w3.org/2000/svg" viewBox="0 0 123.43 123.43">
  <defs>
    <style>
      .cls-1 {
        fill: #1d1d1b;
      }
    </style>
  </defs>
  <g id="Capa_1-2" data-name="Capa 1">
    <g>
      <g>
        <path class="cls-1" d="m34.59,0H0v.48h3.18c1.32,0,2.56.1,3.73.3,1.17.2,2.18.66,3.02,1.37.84.72,1.52,1.75,2.03,3.11.51,1.35.77,3.23.77,5.62v62.01c0,2.31-.26,4.14-.77,5.49-.51,1.36-1.19,2.39-2.03,3.11-.84.72-1.85,1.18-3.02,1.37-1.17.2-2.42.3-3.73.3H0v.48h34.59v-.48h-3.29c-1.32,0-2.54-.1-3.68-.3-1.14-.2-2.14-.66-3.02-1.37-.88-.72-1.56-1.75-2.03-3.11-.48-1.35-.71-3.19-.71-5.49v-30.71h0v-.72h0V10.87c0-2.39.24-4.26.71-5.62.48-1.35,1.15-2.39,2.03-3.11.88-.72,1.88-1.18,3.02-1.37,1.13-.2,2.36-.3,3.68-.3h3.29v-.48Z"/>
        <path class="cls-1" d="m66.44,5.26c.51-1.35,1.19-2.39,2.03-3.11.84-.72,1.85-1.18,3.02-1.37,1.17-.2,2.42-.3,3.73-.3h3.18v-.48h-34.48v.48h3.18c1.32,0,2.54.1,3.68.3,1.13.2,2.14.66,3.02,1.37s1.55,1.75,2.03,3.11c.47,1.35.71,3.23.71,5.62v29.58h0v3.04h0v29.38c0,2.31-.24,4.14-.71,5.49-.48,1.36-1.15,2.39-2.03,3.11s-1.89,1.18-3.02,1.37c-1.14.2-2.36.3-3.68.3h-3.18v.48h34.48v-.48h-3.18c-1.32,0-2.56-.1-3.73-.3-1.17-.2-2.18-.66-3.02-1.37-.84-.72-1.52-1.75-2.03-3.11-.51-1.35-.77-3.19-.77-5.49V10.87c0-2.39.26-4.26.77-5.62Z"/>
      </g>
      <path class="cls-1" d="m116.4,121.04c-2.2-1.27-3.99-3.02-5.38-5.26l-20.53-33.57c5.49-1.59,9.61-4.22,12.35-7.88,2.74-3.66,4.12-7.84,4.12-12.54,0-3.03-.59-5.87-1.76-8.54-1.17-2.67-2.91-5-5.22-6.99-2.31-1.99-5.22-3.56-8.73-4.72-3.51-1.15-7.58-1.73-12.19-1.73H16.96c0,.16.03.32.03.48h62.07c2.93,0,5.47.56,7.63,1.67,2.16,1.12,3.97,2.65,5.44,4.6,1.46,1.95,2.56,4.24,3.29,6.87.73,2.63,1.1,5.42,1.1,8.36s-.37,5.72-1.1,8.3c-.73,2.59-1.83,4.86-3.29,6.81-1.47,1.95-3.28,3.49-5.44,4.6-1.8.93-3.89,1.45-6.23,1.6v.02h-.36c-.35.02-.68.05-1.04.05l-.66-.02v.48s.66.02.66.02h.04c.72.02,1.44.53,2.16,1.55.73,1.04,1.65,2.47,2.75,4.3l16.36,26.76c1.39,2.23,3.18,3.98,5.38,5.26,2.2,1.27,4.54,1.91,7.03,1.91h10.65v-.48c-2.49,0-4.83-.64-7.03-1.91Z"/>
    </g>
  </g>
</svg>